<svg xmlns="http://www.w3.org/2000/svg" xmlns:xlink="http://www.w3.org/1999/xlink" width="256" height="256" viewBox="0 0 256 256"><defs><style>.a{clip-path:url(#b);}.b{fill:#fcca03;stroke:rgba(0,0,0,0);}</style><clipPath id="b"><rect width="256" height="256"/></clipPath></defs><g id="a" class="a"><path class="b" d="M-1723.366,147.754a31.811,31.811,0,0,1,0-4.533c.662-5.2-.961-7.962-6.624-9.494-8.819-2.3-15.066-8.7-15.378-17.936-.636-19.391-1.013-38.86.039-58.212.624-12.092,10.521-19.495,22.586-19.56,17.949-.091,35.912-.195,53.848,0,4.974,0,6.857-1.3,6.728-6.494-.338-14.482-.182-28.976-.1-43.471.1-14.1,10.014-23.989,24.067-24.015q46.069-.078,92.137,0c12.871,0,23.015,8.273,23.547,20.936.766,18.339.649,36.743,0,55.082-.364,10.793-7.053,18.079-17.482,20.534-3.9.922-4.9,2.74-4.715,6.234.13,2.6,0,5.2,0,7.793-.259,7.689-4.2,9.871-10.962,5.9s-14.157-7.65-20.339-12.6c-8.819-7.1-18.612-6.572-29.717-5.87v47.848c0,15.313-9,24.859-24.2,25.145-6.356.12-12.716.087-19.076.054-8.134-.042-16.268-.084-24.394.193a33.083,33.083,0,0,0-13.871,3.9c-8.624,4.6-16.651,10.209-24.963,15.066a12.027,12.027,0,0,1-5.811,1.984C-1721.417,156.233-1723.269,153.337-1723.366,147.754Zm1.87-98.371c-8.338.065-12.819,4.78-12.819,12.988q-.17,24.677,0,49.354c0,6.494,4.052,10.871,10.39,11.923,3.468.584,8.157.221,10.04,2.312s1.3,6.845,1.844,10.391a26.3,26.3,0,0,0,.831,3.663l.065-.039c7.481-4.585,14.352-9.092,21.56-12.988a24.542,24.542,0,0,1,10.715-3.13c8.947-.189,17.9-.167,26.861-.145,7.063.018,14.129.035,21.2-.05,9.287-.091,12.767-3.9,12.793-12.988V60.812c-5.728,0-10.663-.233-15.586,0-9.17.533-16.884-2.078-23.21-8.988a8.456,8.456,0,0,0-5.6-2.442q-16.2-.15-32.418-.172Q-1708.179,49.211-1721.5,49.383Zm150.011,6.91c4.027,3.039,8.611,5.4,13.651,8.494a17.325,17.325,0,0,0,.883-2.792c.792-10.975.779-10.975,11.183-12.572,7.572-1.169,11.689-5.2,11.845-12.988q.448-23.691,0-47.393c-.208-8.754-4.922-12.715-13.7-12.715h-89.617c-8.507.026-12.65,4.221-12.65,12.728v49c7.4,0,13.936-.649,20.275.208,5.117.688,11.494,1.779,14.663,5.2,5.741,6.156,12.144,6.819,19.287,6.065a32.76,32.76,0,0,1,3.94-.238A32.758,32.758,0,0,1-1571.484,56.293ZM-1712.495,84c-.585-4.558,3.26-7.143,7.923-7.065,4.377.078,7.312,2.52,7.793,6.923.325,4.078-4.118,8.234-9.689,9.234C-1708.585,90.062-1712.092,87.217-1712.495,84Zm59.459-.259c.325-4.689,3.728-8.118,8-7.208,3.325.753,5.961,4.6,10.728,8.6-5.13,3.039-8.2,6.182-11.559,6.494a7.478,7.478,0,0,1-.787.042C-1650.738,91.663-1653.341,88.148-1653.036,83.737Zm-21.274,7.676c-3.065-.247-7.455-3.806-8.312-6.78-1.3-4.481,2.676-7.494,7.247-7.91,4.974-.377,7.3,3.026,8.767,9.026-2.1,1.683-4.953,5.671-7.5,5.671Q-1674.21,91.421-1674.31,91.412Zm102.93-81.3c.065-5.273,3.416-7.793,8.026-8.26,4.3-.481,8.274,4.208,8.222,8.819,0,5.4-3.767,7.611-8.144,8.3a5.494,5.494,0,0,1-.854.067C-1568.138,19.032-1571.465,14.61-1571.38,10.107Zm-30.093.13c.1-4.351,4.715-8.78,8.884-8.468a8.689,8.689,0,0,1,7.754,8.78c-.143,5.26-3.572,7.793-8.1,8.429a4.73,4.73,0,0,1-.709.053C-1597.559,19.031-1601.571,14.34-1601.473,10.237Zm-21.378,8.663c-4.429-.61-8.052-3-8.234-8.286-.156-4.455,4.078-9.313,8.286-8.819,4.611.61,8.1,2.909,7.975,8.624.1,4.348-3.153,8.537-7.21,8.537A5.963,5.963,0,0,1-1622.852,18.9Z" transform="translate(1761.987 68)"/></g></svg>