<svg xmlns="http://www.w3.org/2000/svg" xmlns:xlink="http://www.w3.org/1999/xlink" width="256" height="256" viewBox="0 0 256 256"><defs><style>.a{clip-path:url(#b);}.b{fill:#fcca03;stroke:rgba(0,0,0,0);}</style><clipPath id="b"><rect width="256" height="256"/></clipPath></defs><g id="a" class="a"><path class="b" d="M77.194-392.564l-.094,0c-3.638,0-7.839-4.084-7.7-7.458.2-4.465,3.356-7.348,8.012-7.293a7.039,7.039,0,0,1,7.282,6.788q.011.317-.006.633a7.412,7.412,0,0,1-7.41,7.332ZM0-400l0-.046a7.084,7.084,0,0,1,6.818-7.341c.189-.007.378-.006.567,0,4.547,0,7.739,3.156,7.666,7.558a7.274,7.274,0,0,1-7.057,7.248c-.1,0-.194.005-.29.005A7.711,7.711,0,0,1,0-400Zm115.758-.173c-.127-3.619,3.738-7.53,7.557-7.648,3.793-.146,7.74,3.483,7.858,7.221a7.576,7.576,0,0,1-7.124,8c-.084,0-.168.008-.252.01s-.142,0-.214,0C119.8-392.581,115.885-396.34,115.76-400.169Zm31,7.584c-4.056,0-7.63-3.556-7.494-7.43.146-4.156,3.956-7.912,7.894-7.794,3.237.1,7.521,4.647,7.5,7.966-.064,3.6-4,7.257-7.889,7.257Zm62.077-7.6a7.348,7.348,0,0,1,7.534-7.158h.024c4.547,0,7.6,2.828,7.593,7.066a7.411,7.411,0,0,1-7.14,7.673l-.044,0h-.017A7.957,7.957,0,0,1,208.839-400.187ZM185.7-400.1v-.046c-.046-3.637,3.9-7.784,7.366-7.821,3.837,0,7.693,4,7.675,8.03a7.73,7.73,0,0,1-7.684,7.339A7.431,7.431,0,0,1,185.7-400.1Zm-16,7.493c-3.683,0-7.457-3.528-7.557-7.012-.118-4.347,4.138-8.54,8.467-8.34,3.519.164,7.021,4.384,6.921,8.322-.109,4.19-3.253,7.03-7.766,7.03ZM46.428-399.493c-.008-.14-.012-.281-.012-.421a7.43,7.43,0,0,1,7.4-7.457h.045a7.275,7.275,0,0,1,7.691,6.835c.006.113.01.226.012.34a7.54,7.54,0,0,1-7.466,7.557c-.139.008-.279.012-.416.012A7.275,7.275,0,0,1,46.428-399.493Zm-23.411-1.076c.109-3.574,3.774-7.157,7.439-7.275,3.938-.119,7.812,3.428,7.876,7.212s-3.556,7.985-7.066,8C26.937-392.63,22.9-396.495,23.017-400.569Zm77.214,7.8a7.512,7.512,0,0,1-7.425-7.6c.109-3.638,3.956-7.4,7.721-7.5s7.357,3.692,7.3,7.676a7.513,7.513,0,0,1-7.511,7.426ZM53.51-427.133q-6.948-7.057-13.5-14.56c-2.455-2.783-4.647-2.928-7.276-.328-4.383,4.393-8.766,8.794-13.277,13.05-4.238,4-7.921,4.638-10.276,2.055-2.555-2.81-1.41-6.448,3.065-10.422q6.266-5.556,12.323-11.349c4.12-3.92,4.02-4.311.191-8.321-4.893-5.129-9.695-10.358-14.551-15.551-2.246-2.492-2.028-4.957.464-7.1s5.047-1.51,7.275.71c4.974,5.047,9.922,10.2,14.951,15.187,3.8,3.8,4.666,3.456,8.285-.437a156.154,156.154,0,0,1,15.005-14.342c1.355-1.109,5.148-.837,6.73.3,2.31,1.664,2.61,4.784.182,7.157-4.9,4.729-9.694,9.5-14.787,13.978-4.293,3.765-4.62,4.811-.591,9.094,4.684,4.947,9.695,9.595,14.205,14.687a6.022,6.022,0,0,1,1.428,4.879c-.254,1.855-1.186,3.432-3.978,3.9A8.11,8.11,0,0,1,53.51-427.133Z" transform="translate(16.005 564.982)"/></g></svg>