<svg xmlns="http://www.w3.org/2000/svg" xmlns:xlink="http://www.w3.org/1999/xlink" width="256" height="256" viewBox="0 0 256 256"><defs><style>.a{clip-path:url(#b);}.b{fill:#424347;stroke:rgba(0,0,0,0);}</style><clipPath id="b"><rect width="256" height="256"/></clipPath></defs><g id="a" class="a"><path class="b" d="M-319.937-420A14.078,14.078,0,0,1-334-434.063V-517.89a4.688,4.688,0,0,1,4.687-4.688,4.688,4.688,0,0,1,4.688,4.688v53.371h98.437v-11.442a33.048,33.048,0,0,1,21.725-30.982l21.667-7.85a30.816,30.816,0,0,1-8.236-20.989v-11.25A30.793,30.793,0,0,1-184-566.645v-53.663H-324.625v60.231a4.688,4.688,0,0,1-4.688,4.687A4.688,4.688,0,0,1-334-560.077v-85.86A14.078,14.078,0,0,1-319.937-660h131.25a14.078,14.078,0,0,1,14.063,14.063v71.6a30.757,30.757,0,0,1,14.531-3.634,30.971,30.971,0,0,1,30.938,30.938v11.25a30.811,30.811,0,0,1-8.291,21.046l21.668,7.812a33.034,33.034,0,0,1,21.779,31v51.239A4.687,4.687,0,0,1-98.688-420ZM-116.5-465.937v36.563h13.125v-46.552A23.634,23.634,0,0,0-118.958-498.1l-25.968-9.363a4.674,4.674,0,0,1-1.265-.69,30.751,30.751,0,0,1-13.9,3.313,30.727,30.727,0,0,1-14.048-3.388,4.674,4.674,0,0,1-1.347.764l-25.78,9.34a23.647,23.647,0,0,0-15.544,22.167v46.586h13.126v-36.562A4.687,4.687,0,0,1-199-470.625a4.688,4.688,0,0,1,4.687,4.688v36.563h68.438v-36.562a4.688,4.688,0,0,1,4.687-4.688A4.688,4.688,0,0,1-116.5-465.937Zm-208.125,31.874a4.692,4.692,0,0,0,4.687,4.688h93.75v-25.769h-98.437Zm142.969-112.968v11.25a21.588,21.588,0,0,0,21.562,21.562,21.588,21.588,0,0,0,21.562-21.562v-11.25a21.588,21.588,0,0,0-21.562-21.563A21.588,21.588,0,0,0-181.656-547.031Zm-142.969-98.906v16.254H-184v-16.254a4.693,4.693,0,0,0-4.688-4.688h-131.25A4.692,4.692,0,0,0-324.625-645.937Zm67,206.995A4.735,4.735,0,0,1-259-442.256a4.728,4.728,0,0,1,1.373-3.318,4.714,4.714,0,0,1,3.315-1.369A4.713,4.713,0,0,1-251-445.575a4.724,4.724,0,0,1,1.373,3.318A4.731,4.731,0,0,1-251-438.943a4.718,4.718,0,0,1-3.314,1.37A4.718,4.718,0,0,1-257.627-438.943ZM-228-505.51l-28.5-17.066H-292.75a14.077,14.077,0,0,1-14.062-14.062v-52.5A14.078,14.078,0,0,1-292.75-603.2h76.875a14.078,14.078,0,0,1,14.063,14.063v52.5a14.077,14.077,0,0,1-14.062,14.063h-5.03v13.045a4.682,4.682,0,0,1-2.377,4.078,4.684,4.684,0,0,1-2.31.61A4.67,4.67,0,0,1-228-505.51Zm-69.438-83.628v52.5a4.692,4.692,0,0,0,4.687,4.688H-255.2a4.689,4.689,0,0,1,2.408.666l22.515,13.482v-9.461a4.686,4.686,0,0,1,4.687-4.687h9.717a4.692,4.692,0,0,0,4.687-4.688v-52.5a4.691,4.691,0,0,0-4.687-4.687H-292.75A4.691,4.691,0,0,0-297.437-589.138Zm-35.189,52.512A4.717,4.717,0,0,1-334-539.94a4.715,4.715,0,0,1,1.373-3.314,4.706,4.706,0,0,1,3.314-1.373A4.71,4.71,0,0,1-326-543.254a4.719,4.719,0,0,1,1.373,3.314A4.72,4.72,0,0,1-326-536.626a4.725,4.725,0,0,1-3.315,1.373A4.721,4.721,0,0,1-332.626-536.626Zm97.059-22.95a4.717,4.717,0,0,1-1.373-3.312,4.717,4.717,0,0,1,1.373-3.314,4.718,4.718,0,0,1,3.314-1.374,4.714,4.714,0,0,1,3.315,1.374,4.7,4.7,0,0,1,1.373,3.314,4.7,4.7,0,0,1-1.373,3.312,4.714,4.714,0,0,1-3.315,1.375A4.725,4.725,0,0,1-235.568-559.576Zm-20.625,0a4.721,4.721,0,0,1-1.373-3.312,4.721,4.721,0,0,1,1.373-3.314,4.722,4.722,0,0,1,3.315-1.374,4.705,4.705,0,0,1,3.314,1.374,4.694,4.694,0,0,1,1.373,3.314,4.694,4.694,0,0,1-1.373,3.312,4.712,4.712,0,0,1-3.314,1.375A4.722,4.722,0,0,1-256.193-559.576Zm-20.625,0a4.714,4.714,0,0,1-1.372-3.312,4.72,4.72,0,0,1,1.372-3.314,4.721,4.721,0,0,1,3.315-1.374,4.705,4.705,0,0,1,3.314,1.374,4.694,4.694,0,0,1,1.373,3.314,4.694,4.694,0,0,1-1.373,3.312A4.712,4.712,0,0,1-273.5-558.2,4.722,4.722,0,0,1-276.818-559.576Zm8.933-75.775a4.689,4.689,0,0,1-4.688-4.687,4.687,4.687,0,0,1,4.688-4.687h30.018a4.687,4.687,0,0,1,4.688,4.687,4.689,4.689,0,0,1-4.688,4.687Z" transform="translate(342 668)"/></g></svg>