<svg xmlns="http://www.w3.org/2000/svg" xmlns:xlink="http://www.w3.org/1999/xlink" width="256" height="256" viewBox="0 0 256 256"><defs><style>.a{clip-path:url(#b);}.b{fill:#fcca03;}</style><clipPath id="b"><rect width="256" height="256"/></clipPath></defs><g id="a" class="a"><path class="b" d="M11.354-746A19.377,19.377,0,0,1-8-765.355V-784.71H-.258V-920.193A19.378,19.378,0,0,1,19.1-939.549H30.71v-34.838A11.629,11.629,0,0,1,42.323-986H142.968a11.629,11.629,0,0,1,11.613,11.614v34.838H204.9a19.378,19.378,0,0,1,19.355,19.355V-784.71H232v19.355A19.378,19.378,0,0,1,212.645-746ZM-.258-765.355a11.628,11.628,0,0,0,11.613,11.613h201.29a11.629,11.629,0,0,0,11.614-11.613v-11.614H154.58v3.872a11.628,11.628,0,0,1-11.613,11.613H81.032A11.628,11.628,0,0,1,69.42-773.1v-3.872H-.258Zm77.42-7.742a3.876,3.876,0,0,0,3.871,3.871h61.935a3.876,3.876,0,0,0,3.871-3.871v-3.872H77.161ZM154.58-924.064h46.452a7.75,7.75,0,0,1,7.742,7.742V-784.71h7.742V-920.193A11.628,11.628,0,0,0,204.9-931.806H154.58ZM22.968-784.71H201.032V-916.322H154.58v3.871a11.572,11.572,0,0,1-.524,3.452H178c6.4,0,11,5.6,11,12v62c0,6.4-4.6,12-11,12H148l-36,22v-22H77a12.3,12.3,0,0,1-12-12v-65.839H42.323A11.628,11.628,0,0,1,30.71-912.452v-3.871H22.968ZM7.484-920.193V-784.71h7.743V-916.322a7.75,7.75,0,0,1,7.742-7.742H30.71v-7.742H19.1A11.629,11.629,0,0,0,7.484-920.193ZM73-835a4.332,4.332,0,0,0,4,4h43v15.735l23.828-14.562L145.749-831H178c1.853,0,3-2.077,3-4v-62c0-1.923-1.147-4-3-4H144.9a11.639,11.639,0,0,1-1.933.161H108.129v22.471L73-900.326ZM38.452-974.387v61.935a3.876,3.876,0,0,0,3.871,3.871H74.4l25.6,16V-909h44.719a3.875,3.875,0,0,0,2.12-3.452v-61.935a3.876,3.876,0,0,0-3.871-3.871H42.323A3.876,3.876,0,0,0,38.452-974.387ZM48-766a4,4,0,0,1,4-4,4,4,0,0,1,4,4,4,4,0,0,1-4,4A4,4,0,0,1,48-766Zm-16,0a4,4,0,0,1,4-4,4,4,0,0,1,4,4,4,4,0,0,1-4,4A4,4,0,0,1,32-766Zm-16,0a4,4,0,0,1,4-4,4,4,0,0,1,4,4,4,4,0,0,1-4,4A4,4,0,0,1,16-766Zm146-86a4,4,0,0,1,4-4,4,4,0,0,1,4,4,4,4,0,0,1-4,4A4,4,0,0,1,162-852Zm-76,4a4,4,0,0,1-4-4,4,4,0,0,1,4-4h64a4,4,0,0,1,4,4,4,4,0,0,1-4,4Zm34-18a4,4,0,0,1-4-4,4,4,0,0,1,4-4h46a4,4,0,0,1,4,4,4,4,0,0,1-4,4Zm0-18a4,4,0,0,1-4-4,4,4,0,0,1,4-4h46a4,4,0,0,1,4,4,4,4,0,0,1-4,4Zm11-46a4,4,0,0,1,4-4,4,4,0,0,1,4,4,4,4,0,0,1-4,4A4,4,0,0,1,131-930Zm-81,4a4,4,0,0,1-4-4,4,4,0,0,1,4-4h69a4,4,0,0,1,4,4,4,4,0,0,1-4,4Zm0-18a4,4,0,0,1-4-4,4,4,0,0,1,4-4h85a4,4,0,0,1,4,4,4,4,0,0,1-4,4Zm0-18a4,4,0,0,1-4-4,4,4,0,0,1,4-4h85a4,4,0,0,1,4,4,4,4,0,0,1-4,4Z" transform="translate(16 994)"/></g></svg>