<svg xmlns="http://www.w3.org/2000/svg" xmlns:xlink="http://www.w3.org/1999/xlink" width="256" height="256" viewBox="0 0 256 256"><defs><style>.a{clip-path:url(#b);}.b{fill:#424347;}</style><clipPath id="b"><rect width="256" height="256"/></clipPath></defs><g id="a" class="a"><path class="b" d="M70.094,224c-5.915-1.34-11.216-3.042-14.942-6.074-10.71-8.716-12.391-20.97-9.106-34.491.237-.993.562-1.959.8-2.952a6.664,6.664,0,0,0-.141-1.458H30.7c-7.029,0-14.058.088-21.086,0-5.272-.1-9.506-3.866-9.568-8.909-.4-33.58,1.819-66.852,12.6-98.947,5.412-16.078,13.3-30.8,26.867-41.795,6.862-5.553,13.548-8.786,26.1-12.16a83.291,83.291,0,0,1,1.019-8.944C67.951,2.276,72.3-.517,78.643.089c5.14.518,8.637,4.49,8.918,10.148a27.207,27.207,0,0,1,.053,3.075c-.167,2.636.554,4.006,3.655,4.718,18.7,4.3,31.717,16.008,41.1,32.288,8.786,15.244,13.425,31.9,16.491,49.026,3.945,22.035,5.272,44.316,5.342,66.685,0,9.594-3.312,12.994-12.748,12.994H107.716c.351,5.887,1.371,11.422.879,16.755-1.292,13.6-9.269,22.237-21.807,26.982C78.122,225.485,76.009,225.339,70.094,224Zm6.765-65.1c17.115,0,34.265-.123,51.336.088,4.085.053,5.887-.879,5.412-5.272-1.942-18.257-3-36.646-5.737-54.78-2.522-16.693-8.039-32.508-18.275-46.372C95.749,33.792,65.666,31.34,49.149,47.788c-7.494,7.459-12.379,16.562-15.955,26.358-9.427,25.831-11.993,52.76-12.634,80-.1,4.059,1.344,4.859,5.017,4.824C42.682,158.807,59.771,158.9,76.86,158.895Z" transform="translate(50.999 15.992)"/></g></svg>