<svg xmlns="http://www.w3.org/2000/svg" xmlns:xlink="http://www.w3.org/1999/xlink" width="256" height="256" viewBox="0 0 256 256"><defs><style>.a{clip-path:url(#b);}.b{fill:#424347;stroke:rgba(0,0,0,0);}</style><clipPath id="b"><rect width="256" height="256"/></clipPath></defs><g id="a" class="a"><path class="b" d="M-1433.02,215.17c-3.7-2.7-7.79-5-11-8.17-11.81-11.49-23.33-23.27-34.21-34.18-10.849,5.23-20.6,11.18-31.18,14.82-58.9,20.36-122.19-16.34-134.52-77.55-11.479-56.759,25.74-112.5,82.52-122.4,59.55-10.38,110.74,28.31,120.8,83.16,5.47,29.79-1,57.52-19.78,81.77-2.939,3.8-3.059,5.9.561,9.329,10.859,10.33,21.3,21.1,31.9,31.711,9.221,9.23,8.321,15.46-3.09,21.51ZM-1542.41,6.9c-46.61,0-82.93,36.38-82.9,83,0,46,36.73,82.53,83,82.54,46.06,0,82.57-36.66,82.55-82.88-.02-46.42-36.229-82.659-82.591-82.66Zm-.37,135.1h-.11a15.071,15.071,0,0,1-14.35-14.89c.09-7.88,7.411-14.95,15.21-14.68a15.3,15.3,0,0,1,14.31,15A14.821,14.821,0,0,1-1542.532,142Zm-14.51-50.278V91.35a15.23,15.23,0,0,1,14.84-15,15.52,15.52,0,0,1,15,14.91c.16,7.87-6.89,14.88-14.96,14.92l-.216,0A14.669,14.669,0,0,1-1557.29,91.723Zm36.01-.15V91.12c.06-7.719,7.01-14.67,14.65-14.71,7.55,0,14.719,7,14.88,14.59a14.87,14.87,0,0,1-14.739,15h-.185A14.611,14.611,0,0,1-1521.28,91.572Zm-71.81-.152a15.061,15.061,0,0,1,14.83-15c7.43-.06,15.06,7.79,14.87,15.29s-7.27,14.29-15.15,14.29A14.641,14.641,0,0,1-1593.09,91.42ZM-1542.46,70h-.26a14.721,14.721,0,0,1-14.531-14.62c0-7.93,7.25-15.14,15-14.94s14.52,7.29,14.52,15A14.651,14.651,0,0,1-1542.378,70Z" transform="translate(1662.01 27.998)"/></g></svg>