<svg xmlns="http://www.w3.org/2000/svg" xmlns:xlink="http://www.w3.org/1999/xlink" width="256" height="256" viewBox="0 0 256 256"><defs><style>.a{clip-path:url(#b);}.b{fill:#fcca03;stroke:rgba(0,0,0,0);}</style><clipPath id="b"><rect width="256" height="256"/></clipPath></defs><g id="a" class="a"><path class="b" d="M-2317.136,81.225c-5.54,0-10.615-1.128-10.764-7.4s4.727-8.592,10.715-8.575h102.569c5.955,0,10.931,2.173,10.814,8.608s-5.208,7.381-10.764,7.314c-17.1-.166-34.184,0-51.284,0v.05C-2282.952,81.225-2300.036,81.141-2317.136,81.225Zm135.625-46.077c-4.031-4.146-8.807-7.945-11.611-12.837-1.857-3.317-2.537-9.438-.646-12.191,3.218-4.694,8.293-2.6,11.875,1.277,2.836,3.019,5.324,6.286,8.26,9.8l51.417-49.211c1.393-1.327,2.637-3.682,4.163-3.848,3.848-.464,8.724-1.343,11.527.5,4.014,2.62,2.82,7.265-.63,10.648-8.658,8.492-17.3,17-26.04,25.41q-16.022,15.493-32.26,30.834c-3.062,2.891-5.535,4.339-7.968,4.339C-2175.958,39.869-2178.447,38.3-2181.511,35.148Zm-32.675,4.661c-12.01-.126-24.029-.109-36.049-.093q-8.04.011-16.081.01c-17.1,0-34.2-.132-51.3,0-5.755.166-10.383-1.493-10.383-7.646s4.777-8.293,10.35-8.293H-2214.2c5.54,0,10.333,2.239,10.4,8.293.065,5.919-4.469,7.732-10,7.732Zm-51.948-41.382h-50.455c-5.656,0-11.412-.68-11.312-7.646s5.722-8.293,11.809-8.293q50.039.1,100.081,0a25.758,25.758,0,0,1,3.317,0c5.191.68,9.3,3.151,8.907,8.807-.365,5.258-4.3,7.132-9.4,7.132C-2230.839-1.673-2248.486-1.574-2266.134-1.574Zm85.336-4c-4.3-4.661-9.437-8.791-12.688-14.065-1.841-2.969-2.272-9.056-.415-11.61,3.317-4.379,8.392-2.853,12.042,1.144,2.77,3.1,5.291,6.319,8.243,9.852l48.9-46.74c1.792-1.658,3.55-3.467,5.308-5.225,4.031-4.047,8.442-5.556,12.9-1s2.14,8.475-1.658,12.108c-11.08,10.748-22.11,21.562-33.173,32.26-8.127,7.845-16.42,15.524-24.531,23.4-2.577,2.5-5.079,3.809-7.562,3.809C-2175.887-1.629-2178.324-2.907-2180.8-5.571Z" transform="translate(2344 125.007)"/></g></svg>