<svg xmlns="http://www.w3.org/2000/svg" xmlns:xlink="http://www.w3.org/1999/xlink" width="256" height="256" viewBox="0 0 256 256"><defs><style>.a{clip-path:url(#b);}.b{fill:#424347;stroke:rgba(0,0,0,0);}</style><clipPath id="b"><rect width="256" height="256"/></clipPath></defs><g id="a" class="a"><path class="b" d="M0,117.339A20.884,20.884,0,0,1,20.3,96h.417a20.478,20.478,0,0,1,20.608,20.4v.521a20.466,20.466,0,0,1-19.88,21.025h-.416c-.175,0-.35.007-.524.007C9.582,137.956.1,128.4,0,117.339Zm87.223,10.513c-7.6,0-12.282-4.372-12.282-11.033.1-6.453,4.684-10.3,12.282-10.3H211.6c7.39,0,12.282,4.059,12.386,10.3.1,6.558-4.788,11.033-12.386,11.033ZM20.193,72.583C8.639,72.479-.208,63.215,0,51.453.1,40,9.264,31.261,21.233,31.365c11.762.1,20.3,9.055,20.088,21.025-.1,11.69-9.051,20.193-20.913,20.193Zm129.273-10.2H88.16c-8.847,0-13.219-3.435-13.219-10.3s4.788-10.929,13.531-10.929H210.147c5.516,0,10.513,1.041,12.906,6.661,3.123,7.286-1.977,14.468-10.1,14.572q-10.564.052-21.133.046C177.73,62.429,163.622,62.382,149.466,62.382ZM20.5,7.842A20.865,20.865,0,0,1,.208-13.7,20.8,20.8,0,0,1,20.817-34c11.657,0,20.609,9.368,20.5,21.337a20.478,20.478,0,0,1-20.5,20.5Zm66.718-10.1c-7.6,0-12.282-4.372-12.282-11.033.1-6.453,4.58-10.3,12.282-10.3q31.226-.156,62.451,0H211.6c7.494,0,12.282,4.06,12.386,10.3.1,6.454-4.788,11.033-12.386,11.033Z" transform="translate(16.007 76)"/></g></svg>