<svg xmlns="http://www.w3.org/2000/svg" xmlns:xlink="http://www.w3.org/1999/xlink" width="256" height="256" viewBox="0 0 256 256"><defs><style>.a{clip-path:url(#b);}.b{fill:#424347;stroke:rgba(0,0,0,0);}</style><clipPath id="b"><rect width="256" height="256"/></clipPath></defs><g id="a" class="a"><path class="b" d="M63.356,216.48c-17.812-.113-34.383-15.557-34.158-34.947.225-17.136,15.331-33.82,34.834-33.707,16.91,0,34.835,15.219,33.594,34.609.9,17.975-15.891,34.046-34.081,34.046ZM126.035,182.1c-.113-19.052,14.543-33.707,33.369-34.383s34.834,14.768,35.06,33.256a34.487,34.487,0,0,1-33.256,35.286c-.5.026-1.009.039-1.514.039C142.689,216.294,125.378,201.694,126.035,182.1Zm29.536-91.652c0-19.052,14.881-33.82,34.271-33.933,19.5,0,34.158,14.543,34.158,33.933s-14.655,34.383-33.82,34.383C170.565,124.828,155.571,109.948,155.571,90.445ZM0,89.768C0,71.957,15.783,56.174,34.947,56.4c16.459,0,34.609,15.106,33.369,34.271,0,19.728-14.768,34.158-34.5,34.158C14.655,124.828,0,109.5,0,89.768ZM77.786,34.529v-.564C77.786,14.8,92.779.033,112.169.033c19.277-.9,34.383,16.8,34.271,34.045-.113,18.15-15.106,34.384-34.158,34.384h-.209A34.232,34.232,0,0,1,77.786,34.529Z" transform="translate(16 20)"/></g></svg>