<svg xmlns="http://www.w3.org/2000/svg" xmlns:xlink="http://www.w3.org/1999/xlink" width="256" height="256" viewBox="0 0 256 256"><defs><style>.a{clip-path:url(#b);}.b{fill:#424347;}</style><clipPath id="b"><rect width="256" height="256"/></clipPath></defs><g id="a" class="a"><path class="b" d="M106.4,76.68c-6.82,21-13.3,40.85-19.79,60.76q-3,9.2-6,18.37c-1.61,4.81-4.9,7.26-10.07,7.25h-60C4.89,163,.65,159.4.08,154.38c-.6-5.28,2.32-9.52,7.87-11.07a22.379,22.379,0,0,1,5.88-.71q22.75-.08,45.5,0c2.39,0,4.32.08,5.3-3,8.71-27.23,17.65-55.11,26.45-82.21C74.549,47.214,69.94,22.81,84.1,8.75a30.77,30.77,0,0,1,43.51.49l.23.23c10.67,11.41,12.69,34.64-7.23,47.92l48.74,110.47,1.41-.3c.77-4.47,1.61-8.94,2.3-13.43,1.2-7.79,4.89-11.43,12.44-11.56,9-.16,18-.18,27,0,6.93.15,11.2,4.5,11.09,10.76s-4.05,9.65-11.27,9.68c-5.33,0-10.67.12-16,0-3-.09-4.35.87-4.87,4.1-2.09,12.88-4.49,25.72-6.86,38.56-1.08,5.83-4,8.86-8.74,9.35-5.2.53-8.55-1.54-11.11-7.32Q142.81,158.151,121,108.55q-6-13.43-11.92-26.8C108.44,80.28,107.6,78.93,106.4,76.68Z" transform="translate(16.997 21.017)"/></g></svg>