<svg xmlns="http://www.w3.org/2000/svg" xmlns:xlink="http://www.w3.org/1999/xlink" width="256" height="256" viewBox="0 0 256 256"><defs><style>.a{clip-path:url(#b);}.b{fill:#424347;stroke:rgba(0,0,0,0);}</style><clipPath id="b"><rect width="256" height="256"/></clipPath></defs><g id="a" class="a"><path class="b" d="M-1112.99,211.21q-15.8-15.66-31.479-31.43c-7.73-7.73-7.73-7.73-17-2-60.24,37.371-140.41,3.43-155.291-65.87-1.56-7.249-2.19-14.7-3.25-22.06v-1l.01.01c1.07-7.19,1.831-14.44,3.261-21.56,7.969-39.51,41.119-71.581,80.86-79.3A103.37,103.37,0,0,1-1114.7,66.85c6.919,31.189.3,59.87-18.77,85.6-.89,1.2-1.83,2.37-2.72,3.58-.3.4-.52.85-1,1.63,12.44,12.41,25,24.8,37.34,37.4a17.371,17.371,0,0,1,4.43,7.491c1.18,4.71-1.09,8.46-5.31,10.76a10.214,10.214,0,0,1-4.9,1.347A10.459,10.459,0,0,1-1112.99,211.21Zm-152.359-59.24c-.931,3,0,4.28,2.1,5.7,18.42,12.78,38.9,17,60.8,13.63,23.739-3.659,42.44-15.88,55.82-35.789,3.88-5.77,6.53-12.37,9.879-18.86-7.159-1.81-10.6-5.4-9.7-9,1.13-4.57,5.3-6.29,12.34-4.65.42-2.059.9-3.8,1.11-5.59,3.76-31.54-14.07-65.759-42.25-80.54C-1196.88,5.55-1219.17,3.3-1242.73,11.23a79.624,79.624,0,0,0-38.41,27.13c-12.81,16.4-18.29,35-17.25,55.86.87,17.45,6.92,32.69,17.121,46.54,1.91,2.59,4,3.79,7.64,2.6a7.575,7.575,0,0,1,2.324-.378C-1266.92,142.982-1263.828,147.172-1265.35,151.97Zm72.177.81a6.83,6.83,0,0,1-6.567-6.951,6.91,6.91,0,0,1,7.089-6.7,6.83,6.83,0,0,1,6.565,7.086,6.831,6.831,0,0,1-6.821,6.57C-1193,152.785-1193.083,152.784-1193.172,152.78Zm-30.667-35.25a6.826,6.826,0,0,1,6.709-6.94,6.827,6.827,0,0,1,6.941,6.71,6.942,6.942,0,0,1-6.638,7.23h-.012A7.15,7.15,0,0,1-1223.84,117.53Zm-43.62,2.22a6.83,6.83,0,0,1-6.332-7.294,6.827,6.827,0,0,1,7.292-6.332,6.828,6.828,0,0,1,6.34,7.176,6.886,6.886,0,0,1-7.087,6.453Q-1267.353,119.753-1267.46,119.75Zm70.39-26.23c-3.36-.06-6.85-3.81-6.73-7.38a7.07,7.07,0,0,1,6.92-6.46,6.68,6.68,0,0,1,6.7,6.61c0,3.521-3.474,7.23-6.81,7.23Zm-63.092-19.544,0-.076c.08-3.46,3.3-6.74,6.65-6.76s7.11,3.71,7.22,7-3.46,6.86-7.16,6.86A6.87,6.87,0,0,1-1260.162,73.976Zm83.355-14.642c-.007-.112-.012-.222-.013-.334a6.821,6.821,0,0,1,6.669-6.969,6.821,6.821,0,0,1,6.968,6.669,6.821,6.821,0,0,1-6.437,6.96c-.146.009-.292.014-.437.014A6.77,6.77,0,0,1-1176.807,59.334ZM-1212.88,38.35c-.15-3.91,2.81-7.35,6.41-7.35a6.829,6.829,0,0,1,7.177,6.464,6.829,6.829,0,0,1-6.463,7.177c-.088.005-.176.008-.265.009-.068,0-.136,0-.2,0A6.669,6.669,0,0,1-1212.88,38.35Zm-45.79.65a6.829,6.829,0,0,1-6.49-7.154c0-.055.005-.111.01-.166.19-3.47,3.54-6.64,6.87-6.52s7,4,7,7.24c-.049,3.392-3.56,6.6-7.176,6.6C-1258.527,39-1258.6,39-1258.67,39Z" transform="translate(1336.01 28.03)"/></g></svg>