<svg xmlns="http://www.w3.org/2000/svg" xmlns:xlink="http://www.w3.org/1999/xlink" width="256" height="256" viewBox="0 0 256 256"><defs><style>.a{clip-path:url(#b);}.b{fill:#424347;stroke:rgba(0,0,0,0);}</style><clipPath id="b"><rect width="256" height="256"/></clipPath></defs><g id="a" class="a"><path class="b" d="M-613.75-746a4.688,4.688,0,0,1-4.688-4.687,4.689,4.689,0,0,1,4.688-4.688h18.523a14.677,14.677,0,0,1-1.023-5.39v-44.766h-37.11A26.67,26.67,0,0,1-660-832.172V-884.75a29.084,29.084,0,0,1,15.118-25.49,19.629,19.629,0,0,1-5.744-13.885v-3.749a19.71,19.71,0,0,1,19.688-19.687,19.71,19.71,0,0,1,19.688,19.688v3.749a19.627,19.627,0,0,1-5.745,13.886,29.138,29.138,0,0,1,14.742,20.8h21.472a14.079,14.079,0,0,1,14.063,14.063,14,14,0,0,1-.806,4.687h55.049a14,14,0,0,1-.805-4.687,14.079,14.079,0,0,1,14.062-14.062h21.471a29.139,29.139,0,0,1,14.742-20.8,19.626,19.626,0,0,1-5.745-13.886v-3.749a19.71,19.71,0,0,1,19.688-19.687,19.71,19.71,0,0,1,19.688,19.688v3.749a19.629,19.629,0,0,1-5.744,13.885A29.083,29.083,0,0,1-420-884.75v52.579a26.67,26.67,0,0,1-26.64,26.64h-37.11v2.813a4.688,4.688,0,0,1-4.687,4.688,4.689,4.689,0,0,1-4.688-4.688v-7.5a4.688,4.688,0,0,1,4.688-4.687h41.8a17.285,17.285,0,0,0,17.266-17.266v-1.016h-61.289a13.258,13.258,0,0,0-13.243,13.243v59.18a5.4,5.4,0,0,0,5.391,5.39,5.4,5.4,0,0,0,5.39-5.39v-5.391a4.688,4.688,0,0,1,4.688-4.687,4.688,4.688,0,0,1,4.687,4.687v5.391a14.678,14.678,0,0,1-1.023,5.39h38.679a4.688,4.688,0,0,1,4.687,4.688A4.688,4.688,0,0,1-446.094-746Zm87.812-9.375h13.68a14.678,14.678,0,0,1-1.023-5.39v-59.18a22.5,22.5,0,0,1,4.3-13.243h-16.955Zm-18.75,0h9.374v-77.812h-9.374Zm-22.031-64.57v59.18a14.678,14.678,0,0,1-1.023,5.39h13.679v-77.812h-16.955A22.49,22.49,0,0,1-566.718-819.945Zm-83.907-12.227a17.285,17.285,0,0,0,17.266,17.266h41.8a4.688,4.688,0,0,1,4.688,4.687v49.453a5.4,5.4,0,0,0,5.39,5.39,5.4,5.4,0,0,0,5.391-5.39v-59.18a13.258,13.258,0,0,0-13.243-13.243h-61.289Zm202.838-51.086a4.688,4.688,0,0,1,1.919,6.346,29.506,29.506,0,0,1-23.143,15.457,4.691,4.691,0,0,1,.262,1.549v17.343h39.375V-884.75a19.71,19.71,0,0,0-19.687-19.687A19.71,19.71,0,0,0-468.75-884.75a4.689,4.689,0,0,1-4.688,4.688h-25.781a4.693,4.693,0,0,0-4.688,4.687,4.693,4.693,0,0,0,4.688,4.687h27.3a20.149,20.149,0,0,0,17.789-10.651A4.686,4.686,0,0,1-450-883.813,4.669,4.669,0,0,1-447.787-883.257Zm-36.9,31.32a18.622,18.622,0,0,1-2.523,9.374h9.086v-17.343a4.654,4.654,0,0,1,.215-1.407h-9.3A18.628,18.628,0,0,1-484.688-851.937Zm-101.25,0a9.385,9.385,0,0,0,9.375,9.374h73.125a9.385,9.385,0,0,0,9.375-9.374,9.386,9.386,0,0,0-9.375-9.375h-73.125A9.386,9.386,0,0,0-585.938-851.937Zm-15.937-7.969v17.343h9.086a18.622,18.622,0,0,1-2.523-9.374,18.628,18.628,0,0,1,2.523-9.375h-9.3A4.682,4.682,0,0,1-601.875-859.906Zm-48.75-24.844v42.188h39.375v-17.343a4.691,4.691,0,0,1,.262-1.549,29.506,29.506,0,0,1-23.143-15.457,4.688,4.688,0,0,1,1.919-6.346,4.686,4.686,0,0,1,6.345,1.919,20.15,20.15,0,0,0,17.789,10.651h27.3a4.693,4.693,0,0,0,4.687-4.687,4.693,4.693,0,0,0-4.687-4.687h-25.781a4.689,4.689,0,0,1-4.688-4.688,19.71,19.71,0,0,0-19.687-19.687A19.71,19.71,0,0,0-650.625-884.75Zm191.25-43.124v3.749a10.324,10.324,0,0,0,10.313,10.313,10.324,10.324,0,0,0,10.312-10.313v-3.749a10.325,10.325,0,0,0-10.312-10.313A10.325,10.325,0,0,0-459.375-927.875Zm-181.875,0v3.749a10.324,10.324,0,0,0,10.312,10.313,10.324,10.324,0,0,0,10.313-10.313v-3.749a10.325,10.325,0,0,0-10.313-10.313A10.325,10.325,0,0,0-641.25-927.875Zm4.031,180.5a4.7,4.7,0,0,1-1.373-3.314A4.7,4.7,0,0,1-637.219-754a4.713,4.713,0,0,1,3.314-1.373A4.723,4.723,0,0,1-630.59-754a4.724,4.724,0,0,1,1.373,3.315,4.725,4.725,0,0,1-1.373,3.314A4.723,4.723,0,0,1-633.905-746,4.719,4.719,0,0,1-637.219-747.374ZM-491.752-780.5a4.71,4.71,0,0,1-1.373-3.314,4.728,4.728,0,0,1,1.373-3.314,4.723,4.723,0,0,1,3.315-1.373,4.719,4.719,0,0,1,3.313,1.373,4.72,4.72,0,0,1,1.374,3.314,4.713,4.713,0,0,1-1.374,3.314,4.716,4.716,0,0,1-3.313,1.374A4.724,4.724,0,0,1-491.752-780.5Zm-51.563-117.341-14.1-14.1H-573.75A14.078,14.078,0,0,1-587.812-926v-45.938A14.079,14.079,0,0,1-573.75-986h67.5a14.079,14.079,0,0,1,14.063,14.063V-926a14.078,14.078,0,0,1-14.062,14.063h-16.34l-14.1,14.1A4.673,4.673,0,0,1-540-896.468,4.673,4.673,0,0,1-543.315-897.842Zm-35.122-74.1V-926a4.692,4.692,0,0,0,4.687,4.687h18.282a4.689,4.689,0,0,1,3.314,1.372L-540-907.786l12.154-12.154a4.687,4.687,0,0,1,3.315-1.373h18.281A4.692,4.692,0,0,0-501.563-926v-45.938a4.693,4.693,0,0,0-4.687-4.687h-67.5A4.693,4.693,0,0,0-578.437-971.938Zm57.154,24.488a4.724,4.724,0,0,1-1.373-3.315,4.723,4.723,0,0,1,1.373-3.314,4.7,4.7,0,0,1,3.314-1.373,4.7,4.7,0,0,1,3.314,1.373,4.724,4.724,0,0,1,1.374,3.314,4.724,4.724,0,0,1-1.374,3.315,4.72,4.72,0,0,1-3.314,1.373A4.721,4.721,0,0,1-521.283-947.45Zm-22.031,0a4.72,4.72,0,0,1-1.373-3.315,4.723,4.723,0,0,1,1.373-3.314A4.72,4.72,0,0,1-540-955.452a4.724,4.724,0,0,1,3.314,1.373,4.723,4.723,0,0,1,1.373,3.314,4.727,4.727,0,0,1-1.373,3.315A4.72,4.72,0,0,1-540-946.076,4.72,4.72,0,0,1-543.314-947.45Zm-22.031,0a4.72,4.72,0,0,1-1.373-3.315,4.723,4.723,0,0,1,1.373-3.314,4.7,4.7,0,0,1,3.314-1.373,4.7,4.7,0,0,1,3.314,1.373,4.723,4.723,0,0,1,1.373,3.314,4.727,4.727,0,0,1-1.373,3.315,4.721,4.721,0,0,1-3.314,1.373A4.72,4.72,0,0,1-565.345-947.45Z" transform="translate(668 994)"/></g></svg>