<svg id="Layer_1" data-name="Layer 1" xmlns="http://www.w3.org/2000/svg" viewBox="0 0 490.09 490.09"><defs><style>.cls-1{fill:#424347;}.cls-2{fill:#fff;}</style></defs><title>logo</title><circle id="circle" class="cls-1" cx="245.04" cy="245.04" r="245.04"/><g id="text2"><path id="path5496" class="cls-2" d="M100.42,369.9A34.26,34.26,0,0,1,84,366a30,30,0,0,1-11.47-11,30.76,30.76,0,0,1-4.11-15.84,30.25,30.25,0,0,1,4.2-15.84,29.42,29.42,0,0,1,11.47-11A36,36,0,0,1,114,310.83a27.36,27.36,0,0,1,10.27,7.44L117,325a21,21,0,0,0-16-7,22.1,22.1,0,0,0-11,2.74,19,19,0,0,0-7.62,7.45,22.93,22.93,0,0,0,0,21.74A19.65,19.65,0,0,0,90,357.49a22.81,22.81,0,0,0,11,2.65A20.85,20.85,0,0,0,117,353l7.19,6.85a27.13,27.13,0,0,1-10.36,7.45,34.22,34.22,0,0,1-13.44,2.57Z" transform="translate(0 -1)"/><path id="path5498" class="cls-2" d="M179.83,359.71V369H134.89V309.11h43.74v9.34H146V334H175v9.16H146v16.52Z" transform="translate(0 -1)"/><path id="path5500" class="cls-2" d="M245.49,309.11V369h-9.16l-33.05-40.58V369h-11V309.11h9.16l33,40.58V309.11Z" transform="translate(0 -1)"/><path id="path5502" class="cls-2" d="M273.79,318.53H253.93v-9.42h50.85v9.42H284.92V369H273.79Z" transform="translate(0 -1)"/><path id="path5504" class="cls-2" d="M358.08,359.71V369H313.13V309.11h43.75v9.34H324.26V334H353.2v9.16H324.26v16.52Z" transform="translate(0 -1)"/><path id="path5506" class="cls-2" d="M409.7,369l-12.24-17.55a21.86,21.86,0,0,1-2.31.09H381.62V369H370.49V309.11h24.66a32.88,32.88,0,0,1,13.52,2.57,19.73,19.73,0,0,1,8.91,7.37,20.61,20.61,0,0,1,3.08,11.38,20.12,20.12,0,0,1-3.34,11.65,19.39,19.39,0,0,1-9.42,7.27L421.69,369Zm-.26-38.61q0-5.73-3.77-8.82t-11-3.08h-13v23.89h13q7.28,0,11-3.08C408.19,337.22,409.44,334.26,409.44,330.43Z" transform="translate(0 -1)"/></g><g id="text1"><path id="path5509" class="cls-2" d="M154.92,226.36h20.19v45.8A64,64,0,0,1,154.43,283a79.3,79.3,0,0,1-24.3,3.78,66.2,66.2,0,0,1-31.69-7.55A57.23,57.23,0,0,1,76.28,258a61.38,61.38,0,0,1,0-60.74,56.14,56.14,0,0,1,22.16-21,66.35,66.35,0,0,1,32-7.71,69.76,69.76,0,0,1,26.26,4.76,51.59,51.59,0,0,1,19.87,13.95l-13.46,13.14a43.18,43.18,0,0,0-31.69-13.14,45.29,45.29,0,0,0-21.67,5.09A37.85,37.85,0,0,0,95,206.66a41.51,41.51,0,0,0-5.26,21A40.89,40.89,0,0,0,95,248.36a39,39,0,0,0,14.77,14.44,43.82,43.82,0,0,0,21.51,5.26q13.46,0,23.64-5.91V226.36Z" transform="translate(0 -1)"/><path id="path5511" class="cls-2" d="M278.29,285.13l-23.48-33.66a43.1,43.1,0,0,1-4.43.17H224.44v33.49H203.1V170.21h47.28q14.94,0,25.94,4.93a37.73,37.73,0,0,1,17.07,14.11q5.91,9.19,5.91,21.84,0,13-6.4,22.33-6.24,9.35-18.06,14l26.43,37.76Zm-.5-74q0-11-7.22-16.91t-21.18-5.91H224.44v45.8h24.95q14,0,21.18-5.91Q277.8,222.09,277.79,211.09Z" transform="translate(0 -1)"/><path id="path5513" class="cls-2" d="M376.21,286.77a65.81,65.81,0,0,1-31.52-7.55,57.56,57.56,0,0,1-22-21.18,59,59,0,0,1-7.88-30.37,58,58,0,0,1,8.05-30.37,56.42,56.42,0,0,1,22-21,64.71,64.71,0,0,1,31.53-7.71,65.62,65.62,0,0,1,25.77,4.92,52.63,52.63,0,0,1,19.7,14.29l-13.79,13a40.21,40.21,0,0,0-30.7-13.47,42.55,42.55,0,0,0-21.18,5.26,36.63,36.63,0,0,0-14.61,14.28,44,44,0,0,0,0,41.7A37.85,37.85,0,0,0,356.18,263a43.65,43.65,0,0,0,21.18,5.09q18.22,0,30.7-13.63l13.79,13.13A52.33,52.33,0,0,1,402,281.85,65.67,65.67,0,0,1,376.21,286.77Z" transform="translate(0 -1)"/></g></svg>